<svg xmlns="http://www.w3.org/2000/svg" width="776" height="368" viewBox="0 0 776 368" font-family="JetBrains Mono, Fira Code, DejaVu Sans Mono, monospace">
<rect width="776" height="368" fill="#0d0d0d"/>
<text x="36" y="56" font-size="20" fill="#ffffff" text-anchor="start" font-weight="bold">dotfiles</text>
<text x="36" y="76" font-size="14" fill="#898781" text-anchor="start">Systems Overview — 2 host(s)</text>
<rect x="36" y="100" width="340" height="212" rx="10" fill="#1a1a19" stroke="#3987e5" stroke-width="1.4"/>
<rect x="36" y="100" width="340" height="36" rx="10" fill="#1a1a19" stroke="#3987e5" stroke-width="1.4"/>
<text x="206" y="122.9" font-size="14" fill="#ffffff" text-anchor="middle" font-weight="bold">❄ Desktop</text>
<rect x="48" y="148" width="316" height="152" rx="6" fill="#1a1a19" stroke="#2c2c2a" stroke-width="1"/>
<text x="60" y="168.2" font-size="12" fill="#898781" text-anchor="start">user</text>
<text x="128.6" y="168.2" font-size="12" fill="#c3c2b7" text-anchor="start">v3rm1n</text>
<text x="60" y="188.2" font-size="12" fill="#898781" text-anchor="start">hname</text>
<text x="128.6" y="188.2" font-size="12" fill="#c3c2b7" text-anchor="start">Desktop</text>
<text x="60" y="208.2" font-size="12" fill="#898781" text-anchor="start">kernel</text>
<text x="128.6" y="208.2" font-size="12" fill="#c3c2b7" text-anchor="start">7.1.2</text>
<text x="60" y="228.2" font-size="12" fill="#898781" text-anchor="start">shell</text>
<text x="128.6" y="228.2" font-size="12" fill="#c3c2b7" text-anchor="start">fish</text>
<text x="60" y="248.2" font-size="12" fill="#898781" text-anchor="start">pkgs</text>
<text x="128.6" y="248.2" font-size="12" fill="#c3c2b7" text-anchor="start">272</text>
<text x="60" y="268.2" font-size="12" fill="#898781" text-anchor="start">de/wm</text>
<text x="128.6" y="268.2" font-size="12" fill="#c3c2b7" text-anchor="start">Hyprland</text>
<text x="60" y="288.2" font-size="12" fill="#898781" text-anchor="start">state</text>
<text x="128.6" y="288.2" font-size="12" fill="#c3c2b7" text-anchor="start">23.11</text>
<rect x="400" y="100" width="340" height="212" rx="10" fill="#1a1a19" stroke="#199e70" stroke-width="1.4"/>
<rect x="400" y="100" width="340" height="36" rx="10" fill="#1a1a19" stroke="#199e70" stroke-width="1.4"/>
<text x="570" y="122.9" font-size="14" fill="#ffffff" text-anchor="middle" font-weight="bold">❄ Laptop</text>
<rect x="412" y="148" width="316" height="152" rx="6" fill="#1a1a19" stroke="#2c2c2a" stroke-width="1"/>
<text x="424" y="168.2" font-size="12" fill="#898781" text-anchor="start">user</text>
<text x="492.6" y="168.2" font-size="12" fill="#c3c2b7" text-anchor="start">v3rm1n</text>
<text x="424" y="188.2" font-size="12" fill="#898781" text-anchor="start">hname</text>
<text x="492.6" y="188.2" font-size="12" fill="#c3c2b7" text-anchor="start">Laptop</text>
<text x="424" y="208.2" font-size="12" fill="#898781" text-anchor="start">kernel</text>
<text x="492.6" y="208.2" font-size="12" fill="#c3c2b7" text-anchor="start">7.1.2</text>
<text x="424" y="228.2" font-size="12" fill="#898781" text-anchor="start">shell</text>
<text x="492.6" y="228.2" font-size="12" fill="#c3c2b7" text-anchor="start">fish</text>
<text x="424" y="248.2" font-size="12" fill="#898781" text-anchor="start">pkgs</text>
<text x="492.6" y="248.2" font-size="12" fill="#c3c2b7" text-anchor="start">263</text>
<text x="424" y="268.2" font-size="12" fill="#898781" text-anchor="start">de/wm</text>
<text x="492.6" y="268.2" font-size="12" fill="#c3c2b7" text-anchor="start">Hyprland</text>
<text x="424" y="288.2" font-size="12" fill="#898781" text-anchor="start">state</text>
<text x="492.6" y="288.2" font-size="12" fill="#c3c2b7" text-anchor="start">23.11</text>
<text x="36" y="332" font-size="10" fill="#898781" text-anchor="start">generated by nix-flake-graph</text>
<rect x="10" y="10" width="756" height="348" rx="12" fill="none" stroke="#383835" stroke-width="1.5"/>
</svg>
